<?xml version="1.0" standalone="no"?>
<!DOCTYPE svg PUBLIC "-//W3C//DTD SVG 20010904//EN"
 "http://www.w3.org/TR/2001/REC-SVG-20010904/DTD/svg10.dtd">
<svg version="1.0" xmlns="http://www.w3.org/2000/svg"
 width="1360.000000pt" height="1360.000000pt" viewBox="0 0 1360.000000 1360.000000"
 preserveAspectRatio="xMidYMid meet">
<metadata>
Created by potrace 1.14, written by Peter Selinger 2001-2017
</metadata>
<g transform="translate(0.000000,1360.000000) scale(0.100000,-0.100000)"
fill="#000000" stroke="none">
<path d="M6799 13483 c-1 -65 -1 -121 -1 -124 2 -18 5 -655 3 -784 0 -15 0
-408 0 -425 0 -8 0 -80 0 -160 0 -80 0 -152 0 -160 0 -8 0 -69 0 -135 0 -66 0
-129 0 -140 0 -53 0 -572 0 -585 0 -8 0 -94 0 -190 0 -96 0 -182 0 -190 0 -17
0 -349 0 -365 0 -5 0 -75 0 -155 0 -80 0 -154 0 -165 1 -71 0 -527 -1 -560 -1
-22 -2 -94 -3 -159 l-2 -120 -2262 0 -2263 0 0 -4533 0 -4533 1132 2 1133 3 1
3390 c1 1865 2 3393 3 3396 2 11 38 17 52 8 7 -4 18 -5 23 -2 13 8 56 10 56 3
0 -7 66 -4 79 5 6 3 11 1 11 -5 0 -8 6 -8 20 0 14 8 20 8 20 0 0 -7 6 -8 19 0
14 7 22 7 26 0 4 -6 11 -7 17 -4 15 10 68 11 68 2 0 -4 14 -3 30 2 17 5 30 5
30 2 0 -9 64 -7 79 3 6 3 11 1 11 -5 0 -8 6 -8 20 0 14 7 26 8 39 0 13 -7 22
-7 26 0 4 7 12 7 25 0 13 -7 21 -7 25 0 4 6 13 7 24 1 10 -6 23 -6 31 -1 8 5
21 5 31 0 9 -5 19 -6 23 -3 8 8 66 10 66 2 0 -3 23 -3 50 1 28 4 50 4 50 1 0
-8 58 -6 66 2 4 3 15 2 25 -4 14 -7 19 -6 19 3 0 9 3 9 12 0 7 -7 17 -8 29 -2
12 7 20 6 24 0 5 -8 11 -8 20 0 9 8 15 8 20 0 3 -6 11 -7 17 -4 14 9 68 11 68
4 0 -7 66 -4 79 5 6 3 11 1 11 -5 0 -6 5 -8 11 -5 13 9 79 12 79 5 0 -7 59 -5
66 3 4 3 15 2 25 -4 13 -7 19 -6 19 1 0 7 6 8 19 0 13 -7 22 -7 26 0 4 7 12 7
25 0 13 -7 21 -7 25 0 4 6 13 7 24 1 10 -6 23 -6 31 -1 8 5 21 5 31 0 9 -5 19
-6 23 -3 8 9 66 10 66 1 0 -4 13 -3 28 2 16 4 36 4 45 -1 10 -6 18 -5 22 1 4
7 12 7 25 0 13 -7 21 -7 25 0 4 6 13 7 24 1 10 -6 23 -6 31 -1 8 5 21 5 31 0
9 -5 19 -6 23 -3 8 8 66 10 66 2 0 -3 22 -3 50 1 55 7 72 1 77 -27 2 -16 3
-130 1 -203 0 -14 0 -52 1 -85 2 -47 3 -569 2 -635 0 -8 0 -94 0 -190 0 -96 0
-182 0 -190 0 -17 0 -349 0 -365 0 -5 0 -75 0 -155 0 -80 0 -152 0 -160 0 -8
0 -66 -1 -128 -1 -61 1 -116 4 -120 3 -5 513 -8 1133 -8 l1128 1 0 1127 c0
1102 2 1183 29 1139 5 -7 15 -7 31 -1 14 5 25 6 25 2 0 -9 64 -7 79 3 6 3 11
1 11 -5 0 -8 6 -8 20 0 14 8 20 8 20 0 0 -7 6 -8 19 0 14 7 22 7 26 0 4 -6 11
-7 17 -4 15 10 68 11 68 2 0 -4 14 -3 30 2 17 5 30 5 30 2 0 -9 64 -7 79 3 6
3 11 1 11 -5 0 -8 6 -8 20 0 14 7 26 8 39 0 13 -7 22 -7 26 0 4 7 12 7 25 0
13 -7 21 -7 25 0 4 6 13 7 24 1 10 -6 23 -6 31 -1 8 5 21 5 31 0 9 -5 19 -6
23 -3 8 8 66 10 66 2 0 -3 23 -3 50 1 28 4 50 4 50 1 0 -8 58 -6 66 2 4 3 15
2 25 -4 14 -7 19 -6 19 3 0 9 3 9 12 0 7 -7 17 -8 29 -2 12 7 20 6 24 0 5 -8
11 -8 20 0 9 8 15 8 20 0 3 -6 11 -7 17 -4 14 9 68 11 68 4 0 -7 66 -4 79 5 6
3 11 1 11 -5 0 -6 5 -8 11 -5 13 9 79 12 79 5 0 -7 59 -5 66 3 4 3 15 2 25 -4
13 -7 19 -6 19 1 0 7 6 8 19 0 13 -7 22 -7 26 0 4 7 12 7 25 0 13 -7 21 -7 25
0 4 6 13 7 24 1 10 -6 23 -6 31 -1 8 5 21 5 31 0 9 -5 19 -6 23 -3 7 8 66 10
66 3 0 -7 66 -4 79 4 5 4 12 2 16 -4 4 -6 11 -7 17 -4 15 10 68 11 68 2 0 -4
14 -3 30 2 17 5 30 5 30 2 0 -9 64 -7 79 3 6 3 11 1 11 -5 0 -8 6 -8 20 0 14
8 20 8 20 0 0 -8 6 -8 20 0 14 8 20 8 20 0 0 -6 4 -8 10 -5 19 11 50 14 55 4
4 -5 11 -7 16 -4 5 4 9 451 9 1139 l0 1132 -1126 0 c-740 -1 -1128 2 -1132 9
-4 6 -7 1025 -7 2265 l0 2255 -1133 3 -1132 2 -1 -117z"/>
<path d="M6804 2259 c-2 -5 -4 -57 -4 -116 1 -59 1 -117 1 -128 0 -11 0 -99 0
-195 0 -96 0 -182 0 -190 0 -17 0 -349 0 -365 0 -5 0 -75 0 -155 0 -80 0 -152
0 -160 0 -8 0 -80 0 -160 0 -80 0 -152 0 -160 1 -8 0 -71 0 -140 -1 -69 -1
-165 -2 -215 0 -50 0 -97 -1 -105 -1 -8 0 -50 0 -93 l2 -77 1132 2 1133 3 0
1128 c0 620 -2 1128 -5 1128 -20 6 -2252 3 -2256 -2z"/>
</g>
</svg>
